<svg width="1131" height="327" viewBox="0 0 1131 327" fill="none" xmlns="http://www.w3.org/2000/svg">
<path d="M242 225.5V21.5L278 0.294521V246L197.5 293L59.5 212.5V103.5L95 82.5V192L139 217.5L182.5 192V56L218 35V35.5V212.5L175 238L197.5 251.5L242 225.5Z" fill="#F3F4F6"/>
<path d="M0 138.5L35 117.5V266.5L0 245.5V138.5Z" fill="#F3F4F6"/>
<path d="M174 306.5L59.5 239.5V280.5L139 327L174 306.5Z" fill="#F3F4F6"/>
<path d="M403.92 229.16C386.04 229.16 372.06 224.18 361.98 214.22C351.9 204.26 346.86 190.04 346.86 171.56V101H376.02V170.48C376.02 182.48 378.48 191.12 383.4 196.4C388.32 201.68 395.22 204.32 404.1 204.32C412.98 204.32 419.88 201.68 424.8 196.4C429.72 191.12 432.18 182.48 432.18 170.48V101H460.98V171.56C460.98 190.04 455.94 204.26 445.86 214.22C435.78 224.18 421.8 229.16 403.92 229.16ZM493.395 227V101H554.955C570.795 101 582.675 104 590.595 110C598.635 116 602.655 123.92 602.655 133.76C602.655 140.36 601.035 146.12 597.795 151.04C594.555 155.84 590.115 159.56 584.475 162.2C578.835 164.84 572.355 166.16 565.035 166.16L568.455 158.78C576.375 158.78 583.395 160.1 589.515 162.74C595.635 165.26 600.375 169.04 603.735 174.08C607.215 179.12 608.955 185.3 608.955 192.62C608.955 203.42 604.695 211.88 596.175 218C587.655 224 575.115 227 558.555 227H493.395ZM522.375 205.04H556.395C563.955 205.04 569.655 203.84 573.495 201.44C577.455 198.92 579.435 194.96 579.435 189.56C579.435 184.28 577.455 180.38 573.495 177.86C569.655 175.22 563.955 173.9 556.395 173.9H520.215V152.66H551.355C558.435 152.66 563.835 151.46 567.555 149.06C571.395 146.54 573.315 142.76 573.315 137.72C573.315 132.8 571.395 129.14 567.555 126.74C563.835 124.22 558.435 122.96 551.355 122.96H522.375V205.04ZM618.072 227L674.232 101H703.032L759.372 227H728.772L682.692 115.76H694.212L647.952 227H618.072ZM646.152 200L653.892 177.86H718.692L726.612 200H646.152ZM802.145 198.2L800.525 164.54L860.825 101H893.225L838.865 159.5L822.665 176.78L802.145 198.2ZM776.045 227V101H805.025V227H776.045ZM862.265 227L817.445 172.1L836.525 151.4L896.285 227H862.265ZM912.887 227V101H1008.11V124.4H941.867V203.6H1010.45V227H912.887ZM939.707 174.44V151.76H1000.37V174.44H939.707ZM1037.25 227V101H1066.41V203.24H1129.59V227H1037.25Z" fill="#F3F4F6"/>
</svg>
